<?xml version="1.0" encoding="utf-8"?>
<svg xmlns="http://www.w3.org/2000/svg">
  <defs>
    <symbol id="moon" viewBox="0 -960 960 960">
      <path
        d="m 480,-120 q -150,0 -255,-105 -105,-105 -105,-255 0,-150 105,-255 105,-105 255,-105 14,0 27.5,1 13.5,1 26.5,3 -41,29 -65.5,75.5 Q 444,-714 444,-660 q 0,90 63,153 63,63 153,63 55,0 101,-24.5 46,-24.5 75,-65.5 2,13 3,26.5 1,13.5 1,27.5 0,150 -105,255 -105,105 -255,105 z m 0,-80 q 88,0 158,-48.5 70,-48.5 102,-126.5 -20,5 -40,8 -20,3 -40,3 -123,0 -209.5,-86.5 Q 364,-537 364,-660 q 0,-20 3,-40 3,-20 8,-40 -78,32 -126.5,102 -48.5,70 -48.5,158 0,116 82,198 82,82 198,82 z m -10,-270 z"
        id="path18" />
    </symbol>
    <symbol id="sun" viewBox="0 -960 960 960">
      <path
        d="m 480,-371.96739 q 45.01359,0 76.5231,-31.50951 31.50951,-31.50951 31.50951,-76.5231 0,-45.01359 -31.50951,-76.5231 -31.50951,-31.50951 -76.5231,-31.50951 -45.01359,0 -76.5231,31.50951 -31.50951,31.50951 -31.50951,76.5231 0,45.01359 31.50951,76.5231 31.50951,31.50951 76.5231,31.50951 z m 0,72.02174 q -74.72256,0 -127.38845,-52.6659 -52.6659,-52.66589 -52.6659,-127.38845 0,-74.72256 52.6659,-127.38845 52.66589,-52.6659 127.38845,-52.6659 74.72256,0 127.38845,52.6659 52.6659,52.66589 52.6659,127.38845 0,74.72256 -52.6659,127.38845 -52.66589,52.6659 -127.38845,52.6659 z M 119.89129,-443.98913 q -15.30462,0 -25.657742,-10.35312 Q 83.880423,-464.69538 83.880423,-480 q 0,-15.30462 10.353125,-25.65775 10.353122,-10.35312 25.657742,-10.35312 h 72.02174 q 15.30463,0 25.65775,10.35312 10.35313,10.35313 10.35313,25.65775 0,15.30462 -10.35313,25.65775 -10.35312,10.35312 -25.65775,10.35312 z m 648.19568,0 q -15.30463,0 -25.65775,-10.35312 -10.35313,-10.35313 -10.35313,-25.65775 0,-15.30462 10.35313,-25.65775 10.35312,-10.35312 25.65775,-10.35312 h 72.02174 q 15.30462,0 25.65774,10.35312 10.35313,10.35313 10.35313,25.65775 0,15.30462 -10.35313,25.65775 -10.35312,10.35312 -25.65774,10.35312 z M 480,-732.07609 q -15.30462,0 -25.65775,-10.35313 -10.35312,-10.35312 -10.35312,-25.65775 v -72.02174 q 0,-15.30462 10.35312,-25.65774 10.35313,-10.35313 25.65775,-10.35313 15.30462,0 25.65775,10.35313 10.35312,10.35312 10.35312,25.65774 v 72.02174 q 0,15.30463 -10.35312,25.65775 -10.35313,10.35313 -25.65775,10.35313 z m 0,648.195667 q -15.30462,0 -25.65775,-10.353125 -10.35312,-10.353122 -10.35312,-25.657742 v -72.02174 q 0,-15.30463 10.35312,-25.65775 10.35313,-10.35313 25.65775,-10.35313 15.30462,0 25.65775,10.35313 10.35312,10.35312 10.35312,25.65775 v 72.02174 q 0,15.30462 -10.35312,25.657742 Q 495.30462,-83.880423 480,-83.880423 Z M 251.33097,-658.25381 212.61929,-696.06522 q -10.80327,-9.90299 -10.35313,-25.20761 0.45014,-15.30462 10.35313,-26.10788 10.80326,-10.80327 26.10788,-10.80327 15.30462,0 25.20761,10.80327 l 37.81141,38.71168 q 9.90299,10.80326 9.90299,25.20761 0,14.40435 -9.90299,25.20761 -9.90299,10.80326 -24.75747,10.35313 -14.85449,-0.45014 -25.65775,-10.35313 z m 444.73425,445.63452 -37.81141,-38.71168 q -9.90299,-10.80326 -9.90299,-25.65775 0,-14.85448 9.90299,-24.75747 9.90299,-10.80326 24.75747,-10.35313 14.85449,0.45014 25.65775,10.35313 l 38.71168,37.81141 q 10.80327,9.90299 10.35313,25.20761 -0.45014,15.30462 -10.35313,26.10788 -10.80326,10.80327 -26.10788,10.80327 -15.30462,0 -25.20761,-10.80327 z m -37.81141,-445.63452 q -10.80326,-9.90299 -10.35313,-24.75747 0.45014,-14.85449 10.35313,-25.65775 l 37.81141,-38.71168 q 9.90299,-10.80327 25.20761,-10.35313 15.30462,0.45014 26.10788,10.35313 10.80327,10.80326 10.80327,26.10788 0,15.30462 -10.80327,25.20761 l -38.71168,37.81141 q -10.80326,9.90299 -25.20761,9.90299 -14.40435,0 -25.20761,-9.90299 z m -445.63452,445.63452 q -10.80327,-10.80326 -10.80327,-26.10788 0,-15.30462 10.80327,-25.20761 l 38.71168,-37.81141 q 10.80326,-9.90299 25.65775,-9.90299 14.85448,0 24.75747,9.90299 10.80326,9.90299 10.35313,24.75747 -0.45014,14.85449 -10.35313,25.65775 l -37.81141,38.71168 q -9.90299,10.80327 -25.20761,10.35313 -15.30462,-0.45014 -26.10788,-10.35313 z M 480,-480 Z"
        id="path207" style="stroke-width:0.900272" />
    </symbol>
  </defs>
</svg>