<?xml version="1.0" encoding="utf-8"?>
<svg xmlns="http://www.w3.org/2000/svg">
  <defs>
    <symbol id="moon" viewBox="0 -960 960 960">
      <path
        d="m 480,-120 q -150,0 -255,-105 -105,-105 -105,-255 0,-150 105,-255 105,-105 255,-105 14,0 27.5,1 13.5,1 26.5,3 -41,29 -65.5,75.5 Q 444,-714 444,-660 q 0,90 63,153 63,63 153,63 55,0 101,-24.5 46,-24.5 75,-65.5 2,13 3,26.5 1,13.5 1,27.5 0,150 -105,255 -105,105 -255,105 z m 0,-80 q 88,0 158,-48.5 70,-48.5 102,-126.5 -20,5 -40,8 -20,3 -40,3 -123,0 -209.5,-86.5 Q 364,-537 364,-660 q 0,-20 3,-40 3,-20 8,-40 -78,32 -126.5,102 -48.5,70 -48.5,158 0,116 82,198 82,82 198,82 z m -10,-270 z"
        id="path18" />
    </symbol>
    <symbol id="sun" viewBox="0 -960 960 960">
      <path
        d="m 480,-371.96739 q 45.01359,0 76.5231,-31.50951 31.50951,-31.50951 31.50951,-76.5231 0,-45.01359 -31.50951,-76.5231 -31.50951,-31.50951 -76.5231,-31.50951 -45.01359,0 -76.5231,31.50951 -31.50951,31.50951 -31.50951,76.5231 0,45.01359 31.50951,76.5231 31.50951,31.50951 76.5231,31.50951 z m 0,72.02174 q -74.72256,0 -127.38845,-52.6659 -52.6659,-52.66589 -52.6659,-127.38845 0,-74.72256 52.6659,-127.38845 52.66589,-52.6659 127.38845,-52.6659 74.72256,0 127.38845,52.6659 52.6659,52.66589 52.6659,127.38845 0,74.72256 -52.6659,127.38845 -52.66589,52.6659 -127.38845,52.6659 z M 119.89129,-443.98913 q -15.30462,0 -25.657742,-10.35312 Q 83.880423,-464.69538 83.880423,-480 q 0,-15.30462 10.353125,-25.65775 10.353122,-10.35312 25.657742,-10.35312 h 72.02174 q 15.30463,0 25.65775,10.35312 10.35313,10.35313 10.35313,25.65775 0,15.30462 -10.35313,25.65775 -10.35312,10.35312 -25.65775,10.35312 z m 648.19568,0 q -15.30463,0 -25.65775,-10.35312 -10.35313,-10.35313 -10.35313,-25.65775 0,-15.30462 10.35313,-25.65775 10.35312,-10.35312 25.65775,-10.35312 h 72.02174 q 15.30462,0 25.65774,10.35312 10.35313,10.35313 10.35313,25.65775 0,15.30462 -10.35313,25.65775 -10.35312,10.35312 -25.65774,10.35312 z M 480,-732.07609 q -15.30462,0 -25.65775,-10.35313 -10.35312,-10.35312 -10.35312,-25.65775 v -72.02174 q 0,-15.30462 10.35312,-25.65774 10.35313,-10.35313 25.65775,-10.35313 15.30462,0 25.65775,10.35313 10.35312,10.35312 10.35312,25.65774 v 72.02174 q 0,15.30463 -10.35312,25.65775 -10.35313,10.35313 -25.65775,10.35313 z m 0,648.195667 q -15.30462,0 -25.65775,-10.353125 -10.35312,-10.353122 -10.35312,-25.657742 v -72.02174 q 0,-15.30463 10.35312,-25.65775 10.35313,-10.35313 25.65775,-10.35313 15.30462,0 25.65775,10.35313 10.35312,10.35312 10.35312,25.65775 v 72.02174 q 0,15.30462 -10.35312,25.657742 Q 495.30462,-83.880423 480,-83.880423 Z M 251.33097,-658.25381 212.61929,-696.06522 q -10.80327,-9.90299 -10.35313,-25.20761 0.45014,-15.30462 10.35313,-26.10788 10.80326,-10.80327 26.10788,-10.80327 15.30462,0 25.20761,10.80327 l 37.81141,38.71168 q 9.90299,10.80326 9.90299,25.20761 0,14.40435 -9.90299,25.20761 -9.90299,10.80326 -24.75747,10.35313 -14.85449,-0.45014 -25.65775,-10.35313 z m 444.73425,445.63452 -37.81141,-38.71168 q -9.90299,-10.80326 -9.90299,-25.65775 0,-14.85448 9.90299,-24.75747 9.90299,-10.80326 24.75747,-10.35313 14.85449,0.45014 25.65775,10.35313 l 38.71168,37.81141 q 10.80327,9.90299 10.35313,25.20761 -0.45014,15.30462 -10.35313,26.10788 -10.80326,10.80327 -26.10788,10.80327 -15.30462,0 -25.20761,-10.80327 z m -37.81141,-445.63452 q -10.80326,-9.90299 -10.35313,-24.75747 0.45014,-14.85449 10.35313,-25.65775 l 37.81141,-38.71168 q 9.90299,-10.80327 25.20761,-10.35313 15.30462,0.45014 26.10788,10.35313 10.80327,10.80326 10.80327,26.10788 0,15.30462 -10.80327,25.20761 l -38.71168,37.81141 q -10.80326,9.90299 -25.20761,9.90299 -14.40435,0 -25.20761,-9.90299 z m -445.63452,445.63452 q -10.80327,-10.80326 -10.80327,-26.10788 0,-15.30462 10.80327,-25.20761 l 38.71168,-37.81141 q 10.80326,-9.90299 25.65775,-9.90299 14.85448,0 24.75747,9.90299 10.80326,9.90299 10.35313,24.75747 -0.45014,14.85449 -10.35313,25.65775 l -37.81141,38.71168 q -9.90299,10.80327 -25.20761,10.35313 -15.30462,-0.45014 -26.10788,-10.35313 z M 480,-480 Z"
        id="path207" style="stroke-width:0.900272" />
    </symbol>
    <symbol id="firstPage" viewBox="0 0 11.002919 18.028034">
      <path
        d="M 1.0157207,1.2188951e-4 A 1.0001,1.0001 0 0 1 2.0001007,1.0137919 V 17.013792 a 1.0001,1.0001 0 1 1 -1.99999895098,0 V 1.0137919 A 1.0001,1.0001 0 0 1 1.0157207,1.2188951e-4 Z M 10.000101,2.0157419 a 1.0000999,1.0000999 0 0 1 0.69531,1.7168 l -5.2812503,5.2812501 5.2812503,5.28125 a 1.0000999,1.0000999 0 1 1 -1.4140599,1.41406 L 3.2930707,9.720822 a 1.0000999,1.0000999 0 0 1 0,-1.41406 L 9.2813511,2.3184819 a 1.0000999,1.0000999 0 0 1 0.7187499,-0.30274 z"
        id="path1" />
    </symbol>
    <symbol id="lastPage" viewBox="0 0 11.002919 18.028034">
      <path
        d="M 9.9871993,1.2188951e-4 A 1.0001,1.0001 0 0 0 9.0028193,1.0137919 V 17.013792 a 1.0001,1.0001 0 1 0 1.9999997,0 V 1.0137919 A 1.0001,1.0001 0 0 0 9.9871993,1.2188951e-4 Z M 1.0028189,2.0157419 a 1.0000999,1.0000999 0 0 0 -0.69531002,1.7168 L 5.5887593,9.013792 0.30750888,14.295042 a 1.0000999,1.0000999 0 1 0 1.41406002,1.41406 l 5.9882804,-5.98828 a 1.0000999,1.0000999 0 0 0 0,-1.41406 L 1.7215689,2.3184819 a 1.0000999,1.0000999 0 0 0 -0.71875,-0.30274 z"
        id="path1" />
    </symbol>
    <symbol id="nextPage" viewBox="0 0 24.662857 24.65971">
      <path
        d="M 1.7980202,0.00164697 C 0.22126123,0.00444697 -0.55492377,1.921486 0.57505323,3.021212 L 9.864127,12.310238 0.57505323,21.599191 C -1.1517568,23.256919 1.4044782,25.813134 3.0622176,24.086268 L 13.594809,13.553744 c 0.686644,-0.686831 0.686644,-1.800254 0,-2.487095 L 3.0622176,0.53412597 C 2.7304957,0.19309697 2.2741332,9.7297003e-4 1.7980202,0.00164697 Z m 10.5532108,0 C 10.774462,0.00444697 9.9983478,1.921486 11.128254,3.021212 l 9.289074,9.289026 -9.289074,9.288953 c -1.7268097,1.657728 0.829435,4.213943 2.487165,2.487077 l 10.53259,-10.532524 c 0.686654,-0.686831 0.686654,-1.800254 0,-2.487095 L 13.615419,0.53412597 c -0.331722,-0.341029 -0.788085,-0.53315299997 -1.264188,-0.532479 z"
        id="path1" />
    </symbol>
    <symbol id="previousPage" viewBox="0 0 14.022076 14.020319">
      <path id="path1"
        d="M 7 0 C 6.7293203 -0.00051089949 6.4699928 0.10871327 6.28125 0.30273438 L 0.29296875 6.2910156 C -0.09739786 6.6815448 -0.09739786 7.3145489 0.29296875 7.7050781 L 6.28125 13.693359 C 7.2237551 14.675161 8.6771145 13.221802 7.6953125 12.279297 L 2.4140625 6.9980469 L 7.6953125 1.7167969 C 8.3377549 1.0915473 7.8964741 0.0019799938 7 0 z M 13 0 C 12.72932 -0.00051089949 12.469993 0.10871327 12.28125 0.30273438 L 6.2929688 6.2910156 C 5.9026023 6.6815448 5.9026023 7.3145489 6.2929688 7.7050781 L 12.28125 13.693359 C 13.223755 14.675161 14.677115 13.221802 13.695312 12.279297 L 8.4140625 6.9980469 L 13.695312 1.7167969 C 14.337755 1.0915473 13.896474 0.0019799938 13 0 z " />
    </symbol>
    <symbol id="magnifyingGlass" viewBox="0 0 416.95222 416.95162">
      <path id="path1"
        d="m 165.09042,0 c -42.24745,0 -84.4955,16.119407 -116.730468,48.359375 -64.479936,64.459935 -64.479936,168.981005 0,233.460935 57.359948,57.36995 146.510928,63.68035 210.880858,18.90039 l 102.41993,109.94922 c 7.93999,8.51999 21.69993,8.22999 29.91992,0 l 19.08984,-19.08984 c 8.22999,-8.21999 8.51999,-21.97993 0,-29.91992 L 300.72128,259.24023 C 345.47124,194.9003 339.16084,105.68932 281.82089,48.359375 249.58592,16.119407 207.33788,0 165.09042,0 Z m 0.006,33.855469 c 33.58247,0 67.16495,12.815338 92.79492,38.445312 51.26995,51.269949 51.25995,134.319899 0,185.589839 -51.29994,51.28995 -134.28989,51.29995 -185.589842,0 -51.259948,-51.25994 -51.259948,-134.32989 0,-185.589839 C 97.931333,46.670807 131.51382,33.855469 165.09628,33.855469 Z m -0.002,15.529297 c -29.61372,0 -59.22924,11.294788 -81.824222,33.884765 -4.949995,4.959995 -4.949995,13.010943 0,17.960939 4.959995,4.95999 13.010943,4.95999 17.960942,0 35.26996,-35.269966 92.44878,-35.269966 127.71875,0 4.95999,4.95999 13.00094,4.95999 17.96094,0 4.95999,-4.949996 4.95999,-13.000944 0,-17.960939 -22.59007,-22.589977 -52.20278,-33.884765 -81.8165,-33.884765 z" />
    </symbol>
  </defs>
</svg>