<?xml version="1.0" encoding="utf-8"?>
<svg xmlns="http://www.w3.org/2000/svg">
  <defs>
    <symbol id="leocesar" viewBox="0 0 126.55 16.708">
         <path d="m0 0.45155h4.1769v11.966h7.5636v3.8382h-11.74zm13.434 0h12.192v3.8382h-8.0151v2.3707h6.4347v3.3867h-6.4347v2.3707h8.0151v3.8382h-12.192zm22.691 16.256q-1.9417 0-3.5673-0.65476-1.6256-0.67733-2.7996-1.8288-1.1515-1.1515-1.8062-2.6642-0.63218-1.5127-0.63218-3.206 0-1.6933 0.63218-3.206 0.65476-1.5127 1.8062-2.6642 1.174-1.1515 2.7996-1.8062 1.6256-0.67733 3.5673-0.67733t3.5673 0.67733q1.6256 0.65476 2.7771 1.8062 1.174 1.1515 1.8062 2.6642 0.65476 1.5127 0.65476 3.206 0 1.6933-0.65476 3.206-0.63218 1.5127-1.8062 2.6642-1.1515 1.1515-2.7771 1.8288-1.6256 0.65476-3.5673 0.65476zm0-3.8382q0.97085 0 1.7836-0.31609 0.8128-0.33866 1.3772-0.92569 0.58702-0.58702 0.90311-1.4224 0.33867-0.83538 0.33867-1.8514t-0.33867-1.8514q-0.31609-0.83538-0.90311-1.4224-0.56444-0.58702-1.3772-0.90311-0.8128-0.33867-1.7836-0.33867-0.97084 0-1.7836 0.33867-0.8128 0.31609-1.3998 0.90311-0.56444 0.58702-0.90311 1.4224-0.31609 0.83538-0.31609 1.8514t0.31609 1.8514q0.33867 0.83538 0.90311 1.4224 0.58702 0.58703 1.3998 0.92569 0.8128 0.31609 1.7836 0.31609zm19.191 3.8382q-1.9417 0-3.5673-0.63218-1.6256-0.65476-2.7996-1.7611-1.1515-1.1289-1.8062-2.6416-0.63218-1.5353-0.63218-3.3189 0-1.7836 0.63218-3.2964 0.65476-1.5353 1.8062-2.6416 1.174-1.1289 2.7996-1.7611 1.6256-0.65475 3.5673-0.65475 1.2869 0 2.3255 0.27093t1.8514 0.72249q0.83538 0.42898 1.445 0.99342 0.63218 0.54187 1.0837 1.1289 1.0612 1.3772 1.5353 3.0932h-4.2898q-0.29351-0.65476-0.83538-1.174-0.45156-0.45155-1.2192-0.8128-0.74507-0.38382-1.8965-0.38382-0.97084 0-1.7836 0.33867-0.8128 0.31609-1.3998 0.90311-0.56444 0.58702-0.90311 1.4224-0.31609 0.83538-0.31609 1.8514t0.31609 1.8514q0.33867 0.83538 0.90311 1.4224 0.58702 0.58703 1.3998 0.92569 0.8128 0.31609 1.7836 0.31609 1.2869 0 2.0546-0.4064 0.79022-0.42898 1.2418-0.94827 0.51929-0.58702 0.76765-1.3547h4.2898q-0.51929 1.8514-1.603 3.2738-0.45156 0.6096-1.0837 1.2192-0.63218 0.58702-1.4676 1.0386-0.83538 0.45155-1.874 0.72249-1.0386 0.29351-2.3255 0.29351zm10.499-16.256h12.192v3.8382h-8.0151v2.3707h6.4347v3.3867h-6.4347v2.3707h8.0151v3.8382h-12.192zm21.223 16.256q-1.2192 0-2.19-0.24836-0.94827-0.22578-1.7159-0.6096-0.74507-0.38382-1.3095-0.88053t-0.97084-1.016q-0.94827-1.2192-1.3772-2.7771h4.2898q0.2032 0.56444 0.6096 0.97084 0.36124 0.36125 0.99342 0.65476 0.65476 0.29351 1.6708 0.29351 1.2644 0 1.8062-0.4064 0.56444-0.42898 0.56444-0.94827 0-0.6096-0.69991-0.94827-0.67733-0.36124-1.7385-0.63217-1.0386-0.27094-2.2578-0.56445-1.1966-0.31609-2.2578-0.85796-1.0386-0.56444-1.7385-1.445-0.67733-0.88053-0.67733-2.3255 0-0.97084 0.42898-1.874 0.45156-0.90311 1.2869-1.5804 0.83538-0.69991 2.0546-1.1063t2.7771-0.4064q1.1515 0 2.0546 0.22577 0.90311 0.2032 1.5804 0.56445 0.69992 0.33867 1.2192 0.79022 0.51928 0.42898 0.88053 0.90311 0.83538 1.0837 1.1515 2.4836h-4.2898q-0.13547-0.38382-0.45156-0.67733-0.27093-0.24836-0.79022-0.45156-0.49671-0.22578-1.3547-0.22578-1.1966 0-1.6708 0.36125-0.47413 0.33866-0.47413 0.76764 0 0.47414 0.4064 0.76765 0.4064 0.29351 1.0612 0.51929 0.65476 0.22578 1.4901 0.42898 0.85796 0.2032 1.7159 0.45155 0.88054 0.24836 1.7159 0.58702 0.85796 0.33867 1.5127 0.88054 0.65475 0.54187 1.0612 1.3095 0.4064 0.74507 0.4064 1.8288 0 1.016-0.42897 1.9643-0.42898 0.92569-1.2869 1.6482-0.83538 0.72249-2.0997 1.1515-1.2644 0.42898-2.9577 0.42898zm11.74-16.256h7.6765l4.2898 15.804h-4.2898l-0.79023-3.1609h-6.096l-0.79022 3.1609h-4.2898zm5.9831 9.0311-1.3547-5.1929h-1.5804l-1.3547 5.1929zm7.4507-9.0311h7.9022q1.445 0 2.5964 0.45156 1.174 0.42898 1.9868 1.174 0.83538 0.74507 1.2869 1.7611 0.45156 0.99342 0.45156 2.1449 0 0.88054-0.27093 1.6256-0.24836 0.72249-0.67734 1.3095-0.42898 0.56444-1.016 1.016-0.56444 0.45155-1.1966 0.79022l3.2738 5.5316h-4.5156l-2.8222-4.7413h-2.8222v4.7413h-4.1769zm7.7894 7.2249q1.016 0 1.5804-0.49671 0.56445-0.51929 0.56445-1.1966 0-0.67733-0.56445-1.174-0.56444-0.51929-1.5804-0.51929h-3.6124v3.3867z"/>
    </symbol>
    <symbol id="3d" viewBox="0 0 45.11 16.708">
         <path d="m11.695 15.037 6.683-3.3415 1.6708-3.3415-3.3415-3.3415h-2.5061l0.83538-1.6708-1.6708-1.6708h-5.0123l-6.683 3.3415 1.6708 1.6708 6.683-3.3415 1.6708 1.6708-3.3415 1.6708 1.6708 1.6708 3.3415-1.6708 3.3415 3.3415-6.683 3.3415zm0 1.6708-3.3415-1.6708v-2.5061l-1.6708-0.83537v-0.83538l-3.3415 1.6708-3.3415-1.6708v-6.683l8.3538-4.1769h5.0123l8.3538 8.3538v0.83538l-1.6708 3.3415zm25.061-5.0123-6.683-6.683 3.3415-1.6708 6.683 6.683zm-1.6708 3.3415 6.683-3.3415 1.6708-3.3415-6.683-6.683h-5.0123l-6.683 3.3415zm0 1.6708-11.695-5.8476v-6.683l8.3538-4.1769h5.0123l8.3538 8.3538v0.83538l-1.6708 3.3415z"/>
    </symbol>
  </defs>
</svg>